<svg xmlns="http://www.w3.org/2000/svg" xmlns:xlink="http://www.w3.org/1999/xlink" viewBox="0 0 430.75 594.81"><defs><style>.cls-1{fill:#78909c;}.cls-2{fill:#90a4ae;}.cls-3{isolation:isolate;}.cls-4{clip-path:url(#clip-path);}.cls-5{clip-path:url(#clip-path-2);}.cls-6{clip-path:url(#clip-path-3);}.cls-7{fill:#37474f;}.cls-8{fill:#b2dfdb;}.cls-9{fill:#4db6ac;}.cls-10{fill:#546e7a;}.cls-11{fill:#455a64;}.cls-12{fill:#fff;}.cls-13{fill:#26c6da;}.cls-14{fill:#00acc1;}.cls-15{fill:#0097a7;}.cls-16{fill:#e0f7fa;}.cls-17{fill:#ff8a65;}.cls-18{fill:#ff7043;}.cls-19{fill:#f4511e;}.cls-20{fill:#ffca28;}.cls-21{fill:#ffd54f;}.cls-22{fill:#ffb300;}.cls-23{fill:#7cb342;}.cls-24{fill:#9ccc65;}.cls-25{fill:#689f38;}.cls-26{clip-path:url(#clip-path-4);}.cls-27{clip-path:url(#clip-path-5);}</style><clipPath id="clip-path"><path class="cls-1" d="M346.67,583.94l-16.87,9.81c2.84-1.65,4.6-5.17,4.62-10.15l16.87-9.81C351.28,578.78,349.51,582.29,346.67,583.94Z"/></clipPath><clipPath id="clip-path-2"><path class="cls-1" d="M112.53,10.87l16.87-9.8c2.88-1.67,6.87-1.44,11.26,1.1L123.79,12C119.39,9.44,115.41,9.2,112.53,10.87Z"/></clipPath><clipPath id="clip-path-3"><path class="cls-1" d="M319.86,125.18l16.88-9.81c8.74,5,15.8,17.28,15.77,27.33l-16.87,9.8C335.67,142.46,328.6,130.22,319.86,125.18Z"/></clipPath><clipPath id="clip-path-4"><path class="cls-2" d="M192.86,472.77l4.1-2.38c3.1-1.8,7.39-1.55,12.11,1.18L205,474C200.25,471.23,196,471,192.86,472.77Z"/></clipPath><clipPath id="clip-path-5"><path class="cls-2" d="M221.08,511.89l-4.1,2.38c3.06-1.78,5-5.55,5-10.92,0-10.8-7.57-24-17-29.39l4.09-2.39c9.41,5.43,17,18.6,17,29.39C226,506.33,224.14,510.11,221.08,511.89Z"/></clipPath></defs><title>phone</title><g id="Capa_2" data-name="Capa 2"><g id="objects"><g class="cls-3"><path class="cls-1" d="M346.67,583.94l-16.87,9.81c2.84-1.65,4.6-5.17,4.62-10.15l16.87-9.81C351.28,578.78,349.51,582.29,346.67,583.94Z"/><g class="cls-4"><g class="cls-3"><path class="cls-1" d="M334.42,583.6l16.87-9.81v.05l-16.87,9.8v0"/><path class="cls-1" d="M334.42,583.64l16.87-9.8c0,.25,0,.51,0,.76l-16.87,9.81c0-.25,0-.51,0-.77"/><path class="cls-1" d="M334.4,584.41l16.87-9.81c0,.25,0,.5,0,.75l-16.88,9.8c0-.24,0-.49,0-.74"/><path class="cls-1" d="M334.35,585.15l16.88-9.8c0,.26-.05.51-.08.76l-16.88,9.8c0-.24.06-.5.08-.76"/><path class="cls-1" d="M334.27,585.91l16.88-9.8c0,.26-.07.51-.12.76l-16.87,9.8c0-.25.08-.5.11-.76"/><path class="cls-1" d="M334.16,586.67l16.87-9.8c0,.26-.09.52-.15.77L334,587.44c.05-.25.11-.51.15-.77"/><path class="cls-1" d="M334,587.44l16.87-9.8c-.06.28-.14.55-.21.81l-16.87,9.8.21-.81"/><path class="cls-1" d="M333.8,588.25l16.87-9.8c-.09.28-.18.56-.28.83l-16.87,9.81c.1-.27.19-.55.28-.84"/><path class="cls-1" d="M333.52,589.09l16.87-9.81a9,9,0,0,1-.38.9L333.14,590c.14-.29.26-.59.38-.9"/><path class="cls-1" d="M333.14,590,350,580.18a9.36,9.36,0,0,1-.6,1.08l-16.87,9.81a9.36,9.36,0,0,0,.6-1.08"/><path class="cls-1" d="M332.54,591.07l16.87-9.81a8,8,0,0,1-2.74,2.68l-16.87,9.81a8.05,8.05,0,0,0,2.74-2.68"/></g></g><path class="cls-1" d="M112.53,10.87l16.87-9.8c2.88-1.67,6.87-1.44,11.26,1.1L123.79,12C119.39,9.44,115.41,9.2,112.53,10.87Z"/><g class="cls-5"><g class="cls-3"><path class="cls-1" d="M112.53,10.87l16.87-9.8a7,7,0,0,1,1.28-.59l-16.87,9.8a8.26,8.26,0,0,0-1.28.59"/><path class="cls-1" d="M113.81,10.28,130.68.48a8.28,8.28,0,0,1,1.11-.31L114.92,10a7,7,0,0,0-1.11.3"/><path class="cls-1" d="M114.92,10,131.79.17A9.06,9.06,0,0,1,132.7,0l-16.87,9.8a9.07,9.07,0,0,0-.91.14"/><path class="cls-1" d="M115.83,9.84,132.7,0a7.5,7.5,0,0,1,.82,0L116.65,9.81c-.28,0-.55,0-.82,0"/><path class="cls-1" d="M116.65,9.81,133.52,0l.75,0L117.39,9.83a6.1,6.1,0,0,0-.74,0"/><path class="cls-1" d="M117.39,9.83,134.27,0c.23,0,.46,0,.7.08L118.1,9.9l-.71-.07"/><path class="cls-1" d="M118.1,9.9,135,.1l.69.11L118.79,10l-.69-.12"/><path class="cls-1" d="M118.79,10,135.66.21l.65.14-16.87,9.81-.65-.14"/><path class="cls-1" d="M119.44,10.16,136.31.35l.66.19-16.88,9.8c-.22-.07-.43-.13-.65-.18"/><path class="cls-1" d="M120.09,10.34,137,.54l.63.2-16.87,9.81c-.21-.08-.43-.15-.64-.21"/><path class="cls-1" d="M120.73,10.55,137.6.74l.64.24-16.87,9.81-.64-.24"/><path class="cls-1" d="M121.37,10.79,138.24,1l.63.27L122,11.06q-.31-.15-.63-.27"/><path class="cls-1" d="M122,11.06l16.87-9.81.64.3-16.87,9.81c-.21-.11-.43-.21-.64-.3"/><path class="cls-1" d="M122.64,11.36l16.87-9.81.65.34-16.87,9.8c-.22-.11-.43-.23-.65-.33"/><path class="cls-1" d="M123.29,11.69l16.87-9.8c.17.09.34.18.5.28L123.79,12l-.5-.29"/></g></g><polygon class="cls-1" points="335.64 152.5 352.51 142.7 351.29 573.79 334.42 583.6 335.64 152.5"/><polygon class="cls-1" points="123.79 11.98 140.66 2.17 336.74 115.37 319.87 125.18 123.79 11.98"/><path class="cls-1" d="M319.86,125.18l16.88-9.81c8.74,5,15.8,17.28,15.77,27.33l-16.87,9.8C335.67,142.46,328.6,130.22,319.86,125.18Z"/><g class="cls-6"><g class="cls-3"><path class="cls-1" d="M319.86,125.18l16.88-9.81.15.09L320,125.27l-.16-.09"/><path class="cls-1" d="M320,125.27l16.87-9.81.67.41-16.87,9.81-.67-.41"/><path class="cls-1" d="M320.69,125.68l16.87-9.81.67.45-16.87,9.8c-.22-.15-.44-.3-.67-.44"/><path class="cls-1" d="M321.36,126.12l16.87-9.8c.24.16.46.32.69.49l-16.87,9.8-.69-.49"/><path class="cls-1" d="M322.05,126.61l16.87-9.8c.24.17.47.35.7.53l-16.88,9.8-.69-.53"/><path class="cls-1" d="M322.74,127.14l16.88-9.8.7.57-16.87,9.81c-.23-.2-.47-.39-.71-.58"/><path class="cls-1" d="M323.45,127.72l16.87-9.81c.24.2.47.41.7.62l-16.87,9.8-.7-.61"/><path class="cls-1" d="M324.15,128.33l16.87-9.8.7.64L324.85,129c-.23-.22-.46-.44-.7-.65"/><path class="cls-1" d="M324.85,129l16.87-9.81.67.66-16.88,9.81q-.33-.34-.66-.66"/><path class="cls-1" d="M325.51,129.64l16.88-9.81c.22.22.43.45.64.68l-16.87,9.81c-.21-.23-.43-.46-.65-.68"/><path class="cls-1" d="M326.16,130.32,343,120.51c.21.22.42.45.62.68L326.78,131c-.2-.23-.41-.46-.62-.68"/><path class="cls-1" d="M326.78,131l16.87-9.81.61.72-16.87,9.8-.61-.71"/><path class="cls-1" d="M327.39,131.71l16.87-9.8.61.75L328,132.47c-.2-.26-.4-.51-.61-.76"/><path class="cls-1" d="M328,132.47l16.87-9.81c.24.31.48.61.71.93l-16.88,9.8c-.23-.31-.46-.62-.7-.92"/><path class="cls-1" d="M328.7,133.39l16.88-9.8c.34.46.67.94,1,1.42l-16.87,9.81c-.33-.48-.66-1-1-1.43"/><path class="cls-1" d="M329.71,134.82,346.58,125c.41.62.8,1.24,1.17,1.87l-16.87,9.81c-.37-.64-.77-1.26-1.17-1.87"/><path class="cls-1" d="M330.88,136.69l16.87-9.81c.27.46.53.93.78,1.4l-16.87,9.8c-.25-.47-.51-.93-.78-1.39"/><path class="cls-1" d="M331.66,138.08l16.87-9.8c.17.31.33.63.49.95L332.15,139l-.49-.95"/><path class="cls-1" d="M332.15,139l16.87-9.8c.14.27.28.55.41.83l-16.88,9.81c-.13-.28-.26-.56-.4-.84"/><path class="cls-1" d="M332.55,139.87l16.88-9.81c.12.25.23.51.34.77l-16.87,9.8c-.11-.26-.23-.51-.35-.76"/><path class="cls-1" d="M332.9,140.63l16.87-9.8c.12.25.22.5.33.75l-16.87,9.8-.33-.75"/><path class="cls-1" d="M333.23,141.38l16.87-9.8c.1.25.21.51.31.77l-16.88,9.8c-.09-.25-.2-.51-.3-.77"/><path class="cls-1" d="M333.53,142.15l16.88-9.8.29.77-16.87,9.81c-.1-.26-.19-.52-.3-.78"/><path class="cls-1" d="M333.83,142.93l16.87-9.81c.1.27.19.54.28.81l-16.87,9.8c-.09-.26-.19-.53-.28-.8"/><path class="cls-1" d="M334.11,143.73l16.87-9.8c.09.27.18.55.26.82l-16.87,9.8c-.08-.27-.17-.54-.26-.82"/><path class="cls-1" d="M334.37,144.55l16.87-9.8c.09.28.17.56.25.83l-16.88,9.81q-.11-.42-.24-.84"/><path class="cls-1" d="M334.61,145.39l16.88-9.81c.07.28.15.56.22.84l-16.88,9.81c-.06-.28-.14-.56-.22-.84"/><path class="cls-1" d="M334.83,146.23l16.88-9.81c.07.28.13.56.19.83L335,147.06c-.06-.28-.13-.55-.2-.83"/><path class="cls-1" d="M335,147.06l16.87-9.81c.06.28.12.55.17.83l-16.87,9.8c-.06-.27-.11-.55-.17-.82"/><path class="cls-1" d="M335.2,147.88l16.87-9.8c.05.27.09.53.14.8l-16.88,9.8c0-.26-.08-.53-.13-.8"/><path class="cls-1" d="M335.33,148.68l16.88-9.8c0,.26.08.53.11.79l-16.87,9.81c0-.27-.07-.53-.12-.8"/><path class="cls-1" d="M335.45,149.48l16.87-9.81.09.78-16.88,9.8c0-.25,0-.51-.08-.77"/><path class="cls-1" d="M335.53,150.25l16.88-9.8.06.77L335.59,151c0-.25,0-.51-.06-.77"/><path class="cls-1" d="M335.59,151l16.88-9.8,0,.76-16.87,9.81c0-.26,0-.51,0-.77"/><path class="cls-1" d="M335.63,151.79,352.5,142c0,.24,0,.48,0,.72l-16.87,9.8c0-.24,0-.47,0-.71"/></g></g><path class="cls-7" d="M319.86,125.18c8.74,5,15.81,17.28,15.78,27.32l-1.22,431.1c0,10-7.14,14.09-15.88,9L122.47,479.44c-8.74-5-15.81-17.28-15.78-27.32L107.91,21c0-10,7.14-14.09,15.88-9Z"/></g><polygon class="cls-8" points="316.62 161.94 315.61 519.09 124.13 408.54 125.14 51.4 316.62 161.94"/><polygon class="cls-9" points="302.52 208.27 302.62 174.2 139 79.74 138.9 113.8 302.52 208.27"/><g class="cls-3"><polygon class="cls-1" points="287.04 417.26 296.87 411.55 296.99 367.14 287.16 372.86 287.04 417.26"/><polygon class="cls-10" points="287.16 372.86 296.99 367.14 258.35 344.83 248.52 350.55 287.16 372.86"/><polygon class="cls-11" points="248.52 350.55 248.39 394.95 287.04 417.26 287.16 372.86 248.52 350.55"/></g><path class="cls-12" d="M274.69,384.49c0,6.2-7.61,15.32-8,15.8-.4-.94-7.92-18.78-7.9-25s3.59-8.19,8-5.66S274.7,378.29,274.69,384.49Zm-8-.38c2.23,1.29,4,.26,4.06-2.3a8.9,8.9,0,0,0-4-7c-2.23-1.29-4.05-.26-4.06,2.31a8.89,8.89,0,0,0,4,7"/><g class="cls-3"><polygon class="cls-13" points="287.04 354.26 296.87 348.55 296.99 304.14 287.16 309.86 287.04 354.26"/><polygon class="cls-14" points="287.16 309.86 296.99 304.14 258.35 281.83 248.52 287.54 287.16 309.86"/><polygon class="cls-15" points="248.52 287.54 248.39 331.95 287.04 354.26 287.16 309.86 248.52 287.54"/></g><path class="cls-12" d="M274.69,321.49c0,6.2-7.61,15.32-8,15.8-.4-.94-7.92-18.78-7.9-25s3.59-8.19,8-5.66S274.7,315.29,274.69,321.49Zm-8-.38c2.23,1.29,4,.26,4.06-2.31a8.9,8.9,0,0,0-4-7c-2.23-1.29-4.05-.26-4.06,2.31a8.9,8.9,0,0,0,4,7"/><path class="cls-10" d="M258.53,105.77a6.82,6.82,0,0,1,3.08,5.34c0,2-1.4,2.74-3.1,1.76L192,74.46a6.84,6.84,0,0,1-3.08-5.33c0-2,1.4-2.76,3.1-1.77Z"/><g class="cls-3"><polygon class="cls-16" points="297.94 228.88 297.81 277.75 255.27 253.19 255.41 204.32 297.94 228.88"/></g><g class="cls-3"><polygon class="cls-1" points="207.97 262.25 212.62 259.55 212.18 414.77 207.53 417.47 207.97 262.25"/><polygon class="cls-10" points="10.77 148.39 15.41 145.69 212.62 259.55 207.97 262.25 10.77 148.39"/><polygon class="cls-11" points="207.97 262.25 207.53 417.47 10.32 303.61 10.77 148.39 207.97 262.25"/></g><g class="cls-3"><polygon class="cls-17" points="221.89 382.22 225.06 380.38 224.97 411.91 221.8 413.76 221.89 382.22"/><polygon class="cls-18" points="0.09 254.16 3.26 252.32 225.06 380.38 221.89 382.22 0.09 254.16"/><polygon class="cls-19" points="221.89 382.22 221.8 413.76 0 285.7 0.09 254.16 221.89 382.22"/></g><polygon class="cls-12" points="104.73 246.61 123.52 268.02 104.67 267.72 104.73 246.61"/><path class="cls-12" d="M111.19,231c14.31,8.27,25.92,28.37,25.88,44.83S125.34,299,111,290.7s-25.94-28.39-25.89-44.84S96.86,222.75,111.19,231ZM111,288.1c13.08,7.55,23.75,1.46,23.79-13.56s-10.56-33.38-23.63-40.93-23.75-1.47-23.79,13.56S98,280.55,111,288.1"/><polygon class="cls-12" points="15.46 269.76 27.18 283.82 15.42 284.31 15.46 269.76"/><path class="cls-12" d="M180.55,367.9l25.59,14.78,0,11.67-25.6-14.77ZM204,391.26l0-7.95-15.81-9.13,0,7.95L204,391.26"/><polygon class="cls-12" points="39.54 285.62 39.5 300.17 36.76 298.58 36.8 284.03 39.54 285.62"/><polygon class="cls-12" points="46.82 289.82 46.78 304.37 44.04 302.79 44.08 288.24 46.82 289.82"/><polygon class="cls-12" points="145.97 351.41 145.96 357.6 142.19 355.42 142.2 349.24 145.97 351.41"/><polygon class="cls-12" points="151.1 348.55 151.05 365.75 145.96 357.6 145.97 351.41 151.1 348.55"/><path class="cls-12" d="M161.75,353.2c4.44,7.67,4.41,16-.05,18.54l-.83-1.43c4-2.29,4-9.75,0-16.64Z"/><path class="cls-12" d="M159.69,354.37a17,17,0,0,1,2.48,8.36c0,2.61-.9,4.56-2.52,5.47l-.82-1.43c1.39-.8,2.16-2.47,2.17-4.72a14.87,14.87,0,0,0-2.14-7.21Z"/><path class="cls-12" d="M157.54,355.59c2.13,3.69,2.12,7.69,0,8.91l-.83-1.44c1.69-.95,1.69-4.1,0-7Z"/><g class="cls-3"><polygon class="cls-20" points="177.06 167.55 186.34 162.16 186.2 211.04 176.92 216.43 177.06 167.55"/><polygon class="cls-21" points="134.52 142.99 143.8 137.6 186.34 162.16 177.06 167.55 134.52 142.99"/><polygon class="cls-22" points="177.06 167.55 176.92 216.43 134.38 191.87 134.52 142.99 177.06 167.55"/></g><path class="cls-12" d="M170,177.18l-.88-.11c-.51-.06-1.19-.1-1.85-.12a17,17,0,0,0-2.41-3.84c.33-.52.63-1.07.84-1.48s.36-.74.36-.74a.55.55,0,0,0,0-.51,1.67,1.67,0,0,0-.4-.62l-.16-.15-.43-.4c-.17-.16-.39-.35-.62-.54s-.48-.39-.73-.59l-.76-.55c-.25-.17-.48-.33-.68-.45l-.49-.3-.14-.08,0,0a1.31,1.31,0,0,0-.66-.19.47.47,0,0,0-.41.22s-.2.25-.48.64-.61.9-.91,1.43a13.64,13.64,0,0,0-4.08-1.11c-.26-.69-.54-1.37-.78-1.88s-.41-.89-.41-.89a.85.85,0,0,0-.39-.43,1.07,1.07,0,0,0-.31-.13,1.34,1.34,0,0,0-.35,0h-.19l-.5,0c-.21,0-.45,0-.7.08l-.39.05-.4.08a10,10,0,0,0-1.41.38l-.45.16-.17.07a.8.8,0,0,0-.44.38.63.63,0,0,0,0,.52s.11.36.29.91.43,1.22.71,1.9a8.44,8.44,0,0,0-2.67,2.47c-.65-.34-1.31-.65-1.82-.88s-.88-.36-.88-.36a.57.57,0,0,0-.51,0,.69.69,0,0,0-.24.15,1,1,0,0,0-.18.26l-.08.16a4.34,4.34,0,0,0-.19.44l-.13.29-.12.34c-.05.12-.09.24-.13.37l-.12.39c-.08.25-.13.52-.2.77s-.09.49-.13.69a4.84,4.84,0,0,0-.07.5l0,.19a1.08,1.08,0,0,0,.51,1.1s.33.21.84.49c.25.15.55.31.86.48l.94.47a13.42,13.42,0,0,0,.74,4.19c-.27.12-.53.26-.78.39l-.7.4-.68.43a.46.46,0,0,0-.25.4,1.33,1.33,0,0,0,.13.67l.35.71c.11.21.24.46.39.72s.31.53.48.8.34.54.51.79.34.47.48.67l.5.63a1.55,1.55,0,0,0,.57.45.58.58,0,0,0,.51,0s.31-.11.76-.3l.76-.33.78-.39a15.94,15.94,0,0,0,3.6,2.75c0,.32,0,.65,0,1s0,.64,0,.91c0,.53,0,.9,0,.9,0,.33.3.75.78,1l.2.08.51.2.73.26c.27.08.55.18.84.25l.43.11.42.09.39.09.34.06.52.07.2,0a1.26,1.26,0,0,0,.34,0,.79.79,0,0,0,.27-.1.46.46,0,0,0,.23-.41s.06-.34.11-.86.1-1.17.12-1.85a9.72,9.72,0,0,0,3.74-.75c.5.56,1,1.12,1.44,1.53l.72.69a.72.72,0,0,0,.5.26.85.85,0,0,0,.59-.13l.15-.1a4.33,4.33,0,0,0,.39-.26,11.4,11.4,0,0,0,1.1-.88l.28-.27.25-.26c.17-.18.32-.35.44-.5a3,3,0,0,0,.29-.37l.11-.14a1,1,0,0,0,.14-.28.83.83,0,0,0,0-.31.74.74,0,0,0-.21-.52s-.24-.32-.63-.78-.87-1-1.39-1.58a9.86,9.86,0,0,0,1.06-3.69c.67,0,1.34,0,1.84,0l.86,0a.47.47,0,0,0,.43-.2,1,1,0,0,0,.16-.6v0a.58.58,0,0,1,0-.15l0-.53c0-.21,0-.47-.08-.75s-.08-.57-.13-.86-.11-.6-.18-.87-.13-.54-.19-.76-.12-.41-.16-.54l-.06-.2a1.71,1.71,0,0,0-.38-.63A.78.78,0,0,0,170,177.18Zm-8.73,10.41c-3.65,1.83-8.76-.14-11.43-4.4s-1.89-9.2,1.75-11,8.76.14,11.43,4.4S164.89,185.75,161.25,187.59Z"/><g class="cls-3"><polygon class="cls-23" points="236.09 200.93 245.37 195.54 245.23 244.42 235.95 249.81 236.09 200.93"/><polygon class="cls-24" points="193.56 176.37 202.83 170.98 245.37 195.54 236.09 200.93 193.56 176.37"/><polygon class="cls-25" points="236.09 200.93 235.95 249.81 193.42 225.25 193.56 176.37 236.09 200.93"/></g><path class="cls-12" d="M202.92,205a22,22,0,0,0,1.33,7.55c2.36,6.54,7.72,14.05,7.72,14.05s-3.41-10.15,1.11-6.82a10.42,10.42,0,0,0,2.57,1.22c7,2.71,12.75-.06,12.75-6.18s-5.69-13.29-12.72-16S202.93,198.87,202.92,205Zm16.45,7.3c0-1.06.87-1.58,1.92-1.17a3.1,3.1,0,0,1,1.92,2.65c0,1.06-.86,1.59-1.92,1.18A3.12,3.12,0,0,1,219.37,212.29Zm-5.64-2.17c0-1.06.87-1.58,1.93-1.18a3.11,3.11,0,0,1,1.91,2.66c0,1.06-.86,1.59-1.92,1.18A3.12,3.12,0,0,1,213.73,210.12ZM208.1,208c0-1.06.86-1.58,1.92-1.18a3.11,3.11,0,0,1,1.91,2.65c0,1.06-.85,1.6-1.92,1.19A3.13,3.13,0,0,1,208.1,208Z"/><polygon class="cls-12" points="247.04 150.35 246.99 168.27 245.02 167.14 245.07 151.64 241.65 150.87 241.65 149.31 245.09 149.23 247.04 150.35"/><path class="cls-12" d="M255.89,155.22a9.06,9.06,0,0,1,4.39,7.8c0,4.58-5.66,6.25-7.17,6.61l7.14,4.12v2.18l-10.73-6.2v-2c2.24-.45,8.77-2.13,8.78-5.86a5.08,5.08,0,0,0-2.69-4.58l-6.2-3.58V152A50.85,50.85,0,0,1,255.89,155.22Z"/><path class="cls-12" d="M264.79,165.51a1,1,0,0,1,.52.91V168c0,.44-.23.43-.53.26l-1.33-.77a1,1,0,0,1-.51-.86v-1.61c0-.37.17-.51.51-.32Z"/><path class="cls-12" d="M264.76,175.74a1,1,0,0,1,.52.92v1.61c0,.44-.23.43-.53.26l-1.32-.77a1,1,0,0,1-.51-.85v-1.62c0-.37.17-.52.51-.32Z"/><path class="cls-12" d="M272.76,165.13l1.65,1a7.48,7.48,0,0,1,3.69,6.26v1.58c0,1.78-.56,2.63-1.48,2.51a6.66,6.66,0,0,1,1.46,4.42v1.33c0,2.71-1.26,3.46-3.86,2l-1.16-.67a25.31,25.31,0,0,1-5.37-3.79l0-1.5,6.09,3.52c1.21.7,2.27,1.12,2.27-.81v-1.25A4.07,4.07,0,0,0,274,176L269,173v-1.78l4.92,2.59c1.47.78,2.18.46,2.19-1v-1.46A4,4,0,0,0,274,168l-6.37-3.67v-1.5A17.84,17.84,0,0,1,272.76,165.13Z"/><path class="cls-12" d="M288.22,174.13a6.92,6.92,0,0,1,3.6,6.16l0,9.77c0,2.91-1.45,3.24-3.63,2l-3.49-2A7,7,0,0,1,281,183.8l0-9.73c0-2.73,1.62-3.18,3.74-2Zm1.61,14.65,0-9.48a3.37,3.37,0,0,0-1.83-3.1l-3.16-1.82c-1.43-.83-1.93-.12-1.94.92l0,9.48a3.65,3.65,0,0,0,1.95,3.18l3.1,1.79c1.27.73,1.87.36,1.87-1"/><g class="cls-3"><polygon class="cls-20" points="425.82 302.63 430.75 299.76 430.6 354.91 425.66 357.78 425.82 302.63"/><polygon class="cls-21" points="254.59 203.77 259.52 200.91 430.75 299.76 425.82 302.63 254.59 203.77"/><polygon class="cls-22" points="425.82 302.63 425.66 357.78 254.43 258.92 254.59 203.77 425.82 302.63"/></g><path class="cls-12" d="M361.52,278.93l0,5.63c0,4.4-1.77,3.42-3.21,2.58l-.22-.13c-1.54-.88-3-1.85-3-6.18l0-5.62,1.09.63v5.62c0,3.18.8,3.69,2.15,4.47,1.16.67,2.09,1.06,2.1-2V278.3Z"/><path class="cls-12" d="M365.3,281a32.37,32.37,0,0,1,3,2.09v1c-.76-.5-2.83-1.77-2.95-1.84l-.23-.14c-.68-.39-1.16-.48-1.16.64v.78a1.84,1.84,0,0,0,1.13,1.9l1.6.92a3.8,3.8,0,0,1,1.91,3.53v.86c0,2-1.23,1.65-2.41,1a30.65,30.65,0,0,1-3.07-2.13v-1c.48.32,1.88,1.23,3,1.87.49.28,1.4.76,1.4-.32v-.83a1.79,1.79,0,0,0-.92-1.75l-1.57-.91a3.81,3.81,0,0,1-2.14-3.67v-.9c0-2,1-1.87,2.36-1.11Z"/><path class="cls-12" d="M371.51,284.7l.09.06c.18.11,3.57,2.24,3.77,2.39v1L371.71,286c-.62-.35-.62,0-.62.41v2.41l3.79,2.33v1l-3.79-2.05v2.41a1.13,1.13,0,0,0,.69,1.11l0,0,3.55,2.05v1c-.18-.08-3.48-1.79-3.66-1.88l-.19-.1a2.89,2.89,0,0,1-1.52-2.69v-6.38C370,284.29,370.74,284.26,371.51,284.7Z"/><path class="cls-12" d="M380.88,296l1.77,5.1-1.2-.69-1.71-5L377.61,294v4.19l-1.09-.63,0-10,3.73,2.15c1.19.69,2.1,1.95,2.1,4.25C382.36,296.57,381.26,296.17,380.88,296ZM377.62,293l2.59,1.5c.56.32,1.05.55,1.05-1.1s-.51-2.13-1-2.43l-2.59-1.5V293"/><polygon class="cls-12" points="390.34 295.57 390.31 305.56 389.22 304.93 384.92 294.8 384.89 302.44 383.79 301.8 383.82 291.81 384.94 292.45 389.23 302.6 389.25 294.94 390.34 295.57"/><path class="cls-12" d="M395.77,298.71l3,11.72-1.25-.72-.7-3-3.3-1.9-.75,2.2-1.27-.74,3.15-8.19Zm-1.93,5.06,2.62,1.51-1.27-5.1-1.35,3.59"/><polygon class="cls-12" points="407.38 305.41 408.05 315.81 406.96 315.18 406.44 307.11 404.42 313.71 403.25 313.04 401.2 304.08 400.69 311.56 399.61 310.93 400.26 301.3 401.77 302.17 403.83 311.28 405.87 304.54 407.38 305.41"/><path class="cls-12" d="M410.84,307.4l.09.06c.17.11,3.56,2.24,3.77,2.39v1L411,308.75c-.62-.36-.62,0-.62.4v2.41l3.79,2.33v1l-3.79-2v2.41a1.13,1.13,0,0,0,.69,1.11l0,0,3.55,2.05v1c-.18-.08-3.48-1.79-3.66-1.88l-.19-.11a2.88,2.88,0,0,1-1.52-2.69v-6.37C409.32,307,410.06,307,410.84,307.4Z"/><path class="cls-12" d="M358.7,298.57a4.36,4.36,0,0,1,2.16,4.19c0,2.82-1.19,2.4-2.09,1.88l-.09-.05c-.47-.28-2.47-1.65-2.53-1.73v4.24l-1.09-.63,0-10Zm-.05,4.81c.59.34,1.1.4,1.1-1.25s-.67-2.13-1.09-2.38l-2.49-1.43v3.62l2.49,1.44"/><path class="cls-12" d="M365.06,302.24,368,314l-1.24-.72-.7-3-3.3-1.91L362,310.5l-1.27-.74,3.15-8.19Zm-1.93,5.06,2.62,1.51-1.28-5.1-1.34,3.59"/><path class="cls-12" d="M371,305.59c.81.47,2.53,1.7,3,2.1v1c-.75-.5-2.83-1.77-3-1.84l-.24-.15c-.68-.39-1.14-.47-1.14.65v.79a1.85,1.85,0,0,0,1.14,1.89l1.6.92a3.81,3.81,0,0,1,1.9,3.53v.85c0,2-1.24,1.66-2.41,1a31.16,31.16,0,0,1-3.07-2.13v-1c.47.33,1.88,1.24,3,1.87.49.29,1.4.77,1.4-.32v-.82a1.83,1.83,0,0,0-.92-1.76l-1.58-.91a3.84,3.84,0,0,1-2.14-3.67v-.89c0-2,1-1.87,2.36-1.11Z"/><path class="cls-12" d="M377.78,309.5c.81.47,2.53,1.7,3,2.1v1c-.76-.5-2.83-1.77-2.95-1.84l-.24-.15c-.68-.39-1.14-.47-1.14.64v.79a1.85,1.85,0,0,0,1.14,1.9l1.6.92a3.8,3.8,0,0,1,1.9,3.53v.85c0,2-1.24,1.66-2.41,1a31.16,31.16,0,0,1-3.07-2.13v-1c.47.33,1.88,1.23,3,1.87.49.29,1.4.76,1.4-.32v-.82a1.83,1.83,0,0,0-.92-1.76l-1.58-.91a3.84,3.84,0,0,1-2.14-3.67v-.89c0-2,1-1.87,2.36-1.11Z"/><polygon class="cls-12" points="392.99 318.36 390.32 326.83 389.16 326.16 387.67 320.46 386.33 324.53 385.17 323.86 382.23 312.15 383.41 312.84 385.75 322.21 387.77 315.35 388.98 316.05 388.22 318.64 389.73 324.57 391.8 317.68 392.99 318.36"/><path class="cls-12" d="M397,320.59c2,1.19,3.38,2.41,3.37,7.09,0,4.41-1.27,4.26-3.4,3s-3.41-2.4-3.4-6.94S395,319.44,397,320.59Zm0,8.9c1.73,1,2.3.77,2.31-2.44,0-3.82-.75-4.36-2.29-5.24s-2.31-1.26-2.32,2.58c0,3.29.53,4.08,2.3,5.1"/><path class="cls-12" d="M405.87,331.73l1.77,5.1-1.2-.69-1.71-5-2.13-1.41v4.19l-1.09-.63,0-10,3.73,2.16c1.19.69,2.1,1.95,2.09,4.25C407.35,332.26,406.24,331.86,405.87,331.73Zm-3.26-3.07,2.59,1.5c.56.32,1,.55,1.05-1.1s-.52-2.13-1-2.43l-2.59-1.5v3.53"/><path class="cls-12" d="M412.17,329.44c2.62,1.51,3.05,4.64,3.05,6.8,0,2.45-.84,4.48-3.08,3.19l-3.36-1.94,0-10Zm-.06,8.74c1.43.82,2-.51,2-2.58,0-2.85-.75-4.27-2-5l-2.23-1.29,0,7.57,2.23,1.29"/><path class="cls-12" d="M339,262.6a6.89,6.89,0,0,1,3.12,5.42c0,2-1.42,2.8-3.15,1.79a6.87,6.87,0,0,1-3.12-5.42C335.82,262.4,337.23,261.59,339,262.6Z"/><path class="cls-12" d="M341.89,270.87a5.71,5.71,0,0,1,2.57,4.46l0,4.39-1.91-1.11v-2.44a.6.6,0,0,0-.28-.48c-.15-.09-.28,0-.28.16v2.44l-6.13-3.55V272.3a.64.64,0,0,0-.28-.49c-.16-.09-.28,0-.29.16v2.44l-1.91-1.1v-4.39c0-1.63,1.18-2.3,2.6-1.47l.06,0a7.93,7.93,0,0,0,2.89,3.23,2.55,2.55,0,0,0,2.9.13Z"/><g class="cls-3"><path class="cls-12" d="M342.45,288.92l1.81,1,0,9.49-10.67-6.16,0-9.49,1.81,1,1.4.81,4.25,2.46Zm-3.55,6c.78.45,1.41.09,1.41-.8a3.15,3.15,0,0,0-.93-2.06v-2.79l-.94-.54v2.79c-.54-.09-.94.27-.94,1a3.1,3.1,0,0,0,1.4,2.42"/><path class="cls-12" d="M338.94,282.82a7.78,7.78,0,0,1,3.51,6.1l-1.4-.81a4.65,4.65,0,0,0-2.12-3.67c-1.17-.68-2.13-.14-2.13,1.21l-1.4-.81C335.4,282.61,337,281.7,338.94,282.82Z"/></g><polygon class="cls-21" points="326.15 255.98 263.42 219.76 263.33 252.35 326.05 288.57 326.15 255.98"/><path class="cls-12" d="M270.71,231.76l0,13.76a1.92,1.92,0,0,0,1.2,1.9l.05,0,5.89,3.4v2.07l-6.16-3.56a5,5,0,0,1-2.84-4.68l0-14Z"/><path class="cls-12" d="M284.93,239.86c3.5,2,5.77,4.1,5.75,12.08,0,7.52-2.15,7.27-5.8,5.16s-5.8-4.1-5.78-11.84C279.12,237.28,281.53,237.9,284.93,239.86Zm0,15.17c2.94,1.7,3.91,1.3,3.93-4.16,0-6.51-1.28-7.42-3.89-8.93s-3.95-2.14-4,4.39c0,5.61.91,6.95,3.93,8.7"/><path class="cls-12" d="M296.94,246.72a49.79,49.79,0,0,1,5.28,3.72v1.69c-.12-.07-3-2.06-5.11-3.27-2.55-1.47-3.09.28-3.1,4.84,0,5,.71,7,3.09,8.41a8.47,8.47,0,0,0,3.52,1l0-4.22-3.05-1.75v-1.41a12.09,12.09,0,0,1,3.53,1.46c.42.24.89.54,1.37.86l0,9.15-1.38-.79-.44-1.4a5.47,5.47,0,0,1-3.72-.89l-.14-.08c-4.06-2.34-4.67-6.57-4.65-11.42S292.91,244.4,296.94,246.72Z"/><polygon class="cls-12" points="306.94 252.68 306.89 269.71 305.02 268.63 305.07 251.6 306.94 252.68"/><polygon class="cls-12" points="320.67 260.61 320.63 277.64 318.76 276.57 311.43 259.3 311.4 272.31 309.51 271.23 309.56 254.2 311.47 255.3 318.78 272.59 318.81 259.54 320.67 260.61"/><g class="cls-3"><g class="cls-3"><path class="cls-2" d="M192.86,472.77l4.1-2.38c3.1-1.8,7.39-1.55,12.11,1.18L205,474C200.25,471.23,196,471,192.86,472.77Z"/><g class="cls-26"><g class="cls-3"><path class="cls-2" d="M192.86,472.77l4.1-2.38a8.64,8.64,0,0,1,1.38-.64l-4.1,2.38a9.62,9.62,0,0,0-1.38.64"/><path class="cls-2" d="M194.24,472.13l4.1-2.38a9.47,9.47,0,0,1,1.19-.32l-4.1,2.38a9.47,9.47,0,0,0-1.19.32"/><path class="cls-2" d="M195.43,471.81l4.1-2.38a8,8,0,0,1,1-.15l-4.1,2.39a8,8,0,0,0-1,.14"/><path class="cls-2" d="M196.41,471.67l4.1-2.39c.29,0,.59,0,.89,0l-4.1,2.38a8.69,8.69,0,0,0-.89.05"/><path class="cls-2" d="M197.3,471.62l4.1-2.38.8,0-4.1,2.38-.8,0"/><path class="cls-2" d="M198.1,471.65l4.1-2.38c.25,0,.5,0,.75.07l-4.1,2.39c-.25,0-.5-.06-.75-.08"/><path class="cls-2" d="M198.85,471.73l4.1-2.39.75.13-4.1,2.38q-.37-.08-.75-.12"/><path class="cls-2" d="M199.6,471.85l4.1-2.38.7.15L200.3,472l-.7-.15"/><path class="cls-2" d="M200.3,472l4.1-2.38.7.2L201,472.2l-.7-.2"/><path class="cls-2" d="M201,472.2l4.1-2.38c.22.06.45.14.68.22l-4.1,2.38-.68-.22"/><path class="cls-2" d="M201.68,472.42l4.1-2.38.69.26-4.1,2.38-.69-.26"/><path class="cls-2" d="M202.37,472.68l4.1-2.38c.22.09.45.18.68.29l-4.1,2.38-.68-.29"/><path class="cls-2" d="M203.05,473l4.1-2.38.69.32-4.1,2.38-.69-.32"/><path class="cls-2" d="M203.74,473.29l4.1-2.38.69.36-4.1,2.38-.69-.36"/><path class="cls-2" d="M204.43,473.65l4.1-2.38.54.3L205,474l-.55-.31"/></g></g></g><g class="cls-3"><path class="cls-2" d="M221.08,511.89l-4.1,2.38c3.06-1.78,5-5.55,5-10.92,0-10.8-7.57-24-17-29.39l4.09-2.39c9.41,5.43,17,18.6,17,29.39C226,506.33,224.14,510.11,221.08,511.89Z"/><g class="cls-27"><g class="cls-3"><path class="cls-2" d="M205,474l4.09-2.39.17.1-4.1,2.38L205,474"/><path class="cls-2" d="M205.14,474.05l4.1-2.38.72.44-4.1,2.39c-.24-.16-.48-.3-.72-.45"/><path class="cls-2" d="M205.86,474.5l4.1-2.39.73.48-4.1,2.38c-.24-.16-.48-.32-.73-.47"/><path class="cls-2" d="M206.59,475l4.1-2.38.74.53-4.1,2.38-.74-.53"/><path class="cls-2" d="M207.33,475.5l4.1-2.38c.25.18.5.37.74.57l-4.1,2.38-.74-.57"/><path class="cls-2" d="M208.07,476.07l4.1-2.38c.26.2.51.41.76.62l-4.1,2.38c-.25-.21-.5-.42-.76-.62"/><path class="cls-2" d="M208.83,476.69l4.1-2.38c.26.21.51.43.76.66l-4.1,2.38c-.25-.23-.5-.45-.76-.66"/><path class="cls-2" d="M209.59,477.35l4.1-2.38c.25.22.5.46.75.69l-4.1,2.39-.75-.7"/><path class="cls-2" d="M210.34,478.05l4.1-2.39.72.71-4.1,2.39c-.24-.25-.48-.48-.72-.71"/><path class="cls-2" d="M211.06,478.76l4.1-2.39.69.73-4.1,2.39c-.23-.25-.46-.5-.69-.73"/><path class="cls-2" d="M211.75,479.49l4.1-2.39c.23.24.45.49.66.74l-4.1,2.38c-.21-.25-.43-.49-.66-.73"/><path class="cls-2" d="M212.41,480.22l4.1-2.38c.23.25.45.51.66.77l-4.1,2.38c-.21-.26-.43-.52-.66-.77"/><path class="cls-2" d="M213.07,481l4.1-2.38q.33.39.66.81l-4.1,2.38-.66-.81"/><path class="cls-2" d="M213.73,481.8l4.1-2.38c.26.32.51.66.76,1l-4.1,2.38-.76-1"/><path class="cls-2" d="M214.49,482.79l4.1-2.38c.37.5.73,1,1.07,1.54l-4.1,2.38c-.34-.52-.7-1-1.07-1.54"/><path class="cls-2" d="M215.56,484.33l4.1-2.38c.44.66.87,1.33,1.27,2l-4.1,2.38c-.4-.68-.83-1.35-1.27-2"/><path class="cls-2" d="M216.83,486.34l4.1-2.38q.44.74.84,1.5l-4.1,2.38q-.4-.75-.84-1.5"/><path class="cls-2" d="M217.67,487.84l4.1-2.38c.18.33.35.68.52,1l-4.1,2.38c-.17-.34-.34-.68-.52-1"/><path class="cls-2" d="M218.19,488.86l4.1-2.38c.15.3.3.6.44.9l-4.1,2.38c-.14-.3-.29-.6-.44-.9"/><path class="cls-2" d="M218.63,489.76l4.1-2.38c.13.27.25.54.37.82l-4.1,2.38c-.12-.27-.24-.55-.37-.82"/><path class="cls-2" d="M219,490.58l4.1-2.38c.12.27.24.54.35.81l-4.1,2.38c-.11-.27-.23-.54-.35-.81"/><path class="cls-2" d="M219.35,491.39l4.1-2.38c.12.28.23.55.33.83l-4.1,2.38c-.1-.28-.21-.55-.33-.83"/><path class="cls-2" d="M219.68,492.22l4.1-2.38c.11.27.22.55.32.83l-4.1,2.38c-.1-.28-.21-.55-.32-.83"/><path class="cls-2" d="M220,493.05l4.1-2.38.3.87-4.1,2.38-.3-.87"/><path class="cls-2" d="M220.3,493.92l4.1-2.38c.1.29.19.59.28.88l-4.1,2.38c-.09-.29-.18-.59-.28-.88"/><path class="cls-2" d="M220.58,494.8l4.1-2.38c.09.3.18.6.26.9l-4.1,2.38c-.08-.3-.17-.6-.26-.9"/><path class="cls-2" d="M220.84,495.7l4.1-2.38q.13.45.24.9l-4.1,2.38q-.11-.45-.24-.9"/><path class="cls-2" d="M221.08,496.6l4.1-2.38c.08.3.14.6.21.89l-4.1,2.38c-.06-.29-.13-.59-.21-.89"/><path class="cls-2" d="M221.29,497.49l4.1-2.38.18.89-4.1,2.38-.18-.89"/><path class="cls-2" d="M221.47,498.38l4.1-2.38.15.86-4.1,2.38-.15-.86"/><path class="cls-2" d="M221.62,499.24l4.1-2.38.12.85-4.1,2.39-.12-.86"/><path class="cls-2" d="M221.74,500.1l4.1-2.39q.06.42.09.84l-4.1,2.38c0-.28-.05-.55-.09-.83"/><path class="cls-2" d="M221.83,500.93l4.1-2.38c0,.27,0,.55.07.82l-4.1,2.39c0-.28,0-.55-.07-.83"/><path class="cls-2" d="M221.9,501.76l4.1-2.39c0,.28,0,.55,0,.83l-4.1,2.38c0-.27,0-.55,0-.82"/><path class="cls-2" d="M221.94,502.58l4.1-2.38c0,.25,0,.51,0,.76V501L222,503.4v0c0-.26,0-.51,0-.77"/><path class="cls-2" d="M222,503.4l4.1-2.39c0,.28,0,.56,0,.83l-4.1,2.38c0-.27,0-.55,0-.82"/><path class="cls-2" d="M221.93,504.22l4.1-2.38c0,.27,0,.54-.05.8l-4.1,2.38c0-.26,0-.53.05-.8"/><path class="cls-2" d="M221.88,505l4.1-2.38c0,.28,0,.55-.09.82l-4.1,2.38c0-.27.07-.54.09-.82"/><path class="cls-2" d="M221.79,505.84l4.1-2.38q0,.42-.12.81l-4.1,2.39c.05-.27.09-.54.12-.82"/><path class="cls-2" d="M221.67,506.66l4.1-2.39c-.05.29-.1.57-.17.84l-4.1,2.38c.07-.27.12-.55.17-.83"/><path class="cls-2" d="M221.5,507.49l4.1-2.38c-.06.29-.14.58-.22.87l-4.1,2.38c.08-.28.16-.57.22-.87"/><path class="cls-2" d="M221.28,508.36l4.1-2.38c-.09.3-.19.6-.3.89l-4.1,2.39q.17-.43.3-.9"/><path class="cls-2" d="M221,509.26l4.1-2.39a9.41,9.41,0,0,1-.41,1l-4.1,2.38a10.25,10.25,0,0,0,.41-1"/><path class="cls-2" d="M220.57,510.22l4.1-2.38A10.93,10.93,0,0,1,224,509l-4.1,2.38a10.93,10.93,0,0,0,.64-1.17"/><path class="cls-2" d="M219.93,511.39,224,509a8.72,8.72,0,0,1-2.95,2.88l-4.1,2.38a8.72,8.72,0,0,0,3-2.88"/></g></g></g><path class="cls-10" d="M205,474c9.4,5.43,17,18.59,17,29.39s-7.68,15.16-17.09,9.73-17-18.58-17-29.39S195.58,468.53,205,474Z"/></g></g></g></svg>